<svg xmlns="http://www.w3.org/2000/svg" xmlns:xlink="http://www.w3.org/1999/xlink" width="860" height="711.3"><rect width="860" height="711.3" rx="5" ry="5" class="a"/><svg y="0%" x="0%"><circle cx="20" cy="20" r="6" fill="#ff5f58"/><circle cx="40" cy="20" r="6" fill="#ffbd2e"/><circle cx="60" cy="20" r="6" fill="#18c132"/></svg><svg height="651.3" viewBox="0 0 82 65.13" width="820" x="15" xmlns="http://www.w3.org/2000/svg" xmlns:xlink="http://www.w3.org/1999/xlink" y="50"><style>@keyframes m{0%{transform:translateX(0)}.1%{transform:translateX(-246px)}15.6%{transform:translateX(-410px)}31%{transform:translateX(-492px)}49.3%{transform:translateX(-574px)}69%{transform:translateX(-656px)}81.7%{transform:translateX(-902px)}to{transform:translateX(-984px)}}.a{fill:#282d35}.f{font-weight:700;white-space:pre}.f,.g{fill:#b9c0cb}.g,.h,.i,.j{white-space:pre}.h{fill:#a8cc8c;font-weight:700}.i,.j{fill:#66c2cd}.j{fill:#dbab79;font-weight:700}</style><g font-family="Monaco,Consolas,Menlo,'Bitstream Vera Sans Mono','Powerline Symbols',monospace" font-size="1.67"><defs><symbol id="1"><text x="2.004" y="1.67" class="f">riverrun</text><text x="12.024" y="1.67" class="f">·</text><text x="15.03" y="1.67" class="f">your</text><text x="20.04" y="1.67" class="f">privacy</text><text x="28.056" y="1.67" class="f">status</text></symbol><symbol id="2"><text x="2.004" y="1.67" class="g">────────────────────────────────────────────────────────</text></symbol><symbol id="3"><text x="3.006" y="1.67" class="g">○</text><text x="6.012" y="1.67" class="g">NOT</text><text x="10.02" y="1.67" class="g">CONNECTED</text><text x="22.044" y="1.67" class="g">no</text><text x="25.05" y="1.67" class="g">identity</text><text x="34.068" y="1.67" class="g">active.</text><text x="42.084" y="1.67" class="g">run</text><text x="46.092" y="1.67" class="g">`riverrun</text><text x="56.112" y="1.67" class="g">connect`</text><text x="65.13" y="1.67" class="g">to</text><text x="68.136" y="1.67" class="g">start</text></symbol><symbol id="4"><text x="3.006" y="1.67" class="h">⚛</text><text x="6.012" y="1.67" class="f">post-quantum</text><text x="22.044" y="1.67" class="h">ON</text><text x="26.052" y="1.67" class="h">(hash-based,</text><text x="39.078" y="1.67" class="h">harvest-now-decrypt-later</text><text x="65.13" y="1.67" class="h">proof)</text></symbol><symbol id="5"><text x="3.006" y="1.67" class="i">◆</text><text x="6.012" y="1.67" class="f">identity</text><text x="22.044" y="1.67" class="g">a</text><text x="24.048" y="1.67" class="g">different,</text><text x="35.07" y="1.67" class="g">unlinkable</text><text x="46.092" y="1.67" class="g">face</text><text x="51.102" y="1.67" class="g">in</text><text x="54.108" y="1.67" class="g">every</text><text x="60.12" y="1.67" class="g">app</text></symbol><symbol id="6"><text x="3.006" y="1.67" class="j">⚑</text><text x="6.012" y="1.67" class="f">real</text><text x="11.022" y="1.67" class="f">anonymity</text><text x="23.046" y="1.67" class="g">run</text><text x="27.054" y="1.67" class="g">`riverrun</text><text x="37.074" y="1.67" class="g">preflight</text><text x="47.094" y="1.67" class="g">&lt;wallet&gt;`</text><text x="57.114" y="1.67" class="g">to</text><text x="60.12" y="1.67" class="g">measure</text><text x="68.136" y="1.67" class="g">yours</text></symbol><symbol id="7"><text x="2.004" y="1.67" class="g">simple:</text><text x="11.022" y="1.67" class="g">connect</text><text x="20.04" y="1.67" class="g">·</text><text x="23.046" y="1.67" class="g">disconnect</text><text x="35.07" y="1.67" class="g">·</text><text x="38.076" y="1.67" class="g">status</text><text x="46.092" y="1.67" class="g">·</text><text x="49.098" y="1.67" class="g">guide</text></symbol><symbol id="8"><text x="2.004" y="1.67" class="g">note:</text><text x="8.016" y="1.67" class="g">riverrun</text><text x="17.034" y="1.67" class="g">makes</text><text x="23.046" y="1.67" class="g">you</text><text x="27.054" y="1.67" class="g">unlinkable,</text><text x="39.078" y="1.67" class="g">it</text><text x="42.084" y="1.67" class="g">does</text><text x="47.094" y="1.67" class="g">not</text><text x="51.102" y="1.67" class="g">hide</text><text x="56.112" y="1.67" class="g">that</text><text x="61.122" y="1.67" class="g">you</text><text x="65.13" y="1.67" class="g">transacted.</text></symbol><symbol id="9"><text x="2.004" y="1.67" class="f">What</text><text x="7.014" y="1.67" class="f">would</text><text x="13.026" y="1.67" class="f">you</text><text x="17.034" y="1.67" class="f">like</text><text x="22.044" y="1.67" class="f">to</text><text x="25.05" y="1.67" class="f">do?</text></symbol><symbol id="10"><text x="4.008" y="1.67" class="h">1</text><text x="7.014" y="1.67" class="f">Am</text><text x="10.02" y="1.67" class="f">I</text><text x="12.024" y="1.67" class="f">exposed?</text><text x="29.058" y="1.67" class="g">check</text><text x="35.07" y="1.67" class="g">your</text><text x="40.08" y="1.67" class="g">real</text><text x="45.09" y="1.67" class="g">anonymity</text><text x="55.11" y="1.67" class="g">before</text><text x="62.124" y="1.67" class="g">you</text><text x="66.132" y="1.67" class="g">act</text></symbol><symbol id="11"><text x="4.008" y="1.67" class="h">2</text><text x="7.014" y="1.67" class="f">Create</text><text x="14.028" y="1.67" class="f">an</text><text x="17.034" y="1.67" class="f">identity</text><text x="29.058" y="1.67" class="g">one</text><text x="33.066" y="1.67" class="g">secret,</text><text x="41.082" y="1.67" class="g">a</text><text x="43.086" y="1.67" class="g">different</text><text x="53.106" y="1.67" class="g">face</text><text x="58.116" y="1.67" class="g">in</text><text x="61.122" y="1.67" class="g">every</text><text x="67.134" y="1.67" class="g">app</text></symbol><symbol id="12"><text x="4.008" y="1.67" class="h">3</text><text x="7.014" y="1.67" class="f">When</text><text x="12.024" y="1.67" class="f">to</text><text x="15.03" y="1.67" class="f">refresh?</text><text x="29.058" y="1.67" class="g">how</text><text x="33.066" y="1.67" class="g">an</text><text x="36.072" y="1.67" class="g">identity</text><text x="45.09" y="1.67" class="g">wears</text><text x="51.102" y="1.67" class="g">out</text><text x="55.11" y="1.67" class="g">with</text><text x="60.12" y="1.67" class="g">use</text></symbol><symbol id="13"><text x="4.008" y="1.67" class="h">4</text><text x="7.014" y="1.67" class="f">Measure</text><text x="15.03" y="1.67" class="f">a</text><text x="17.034" y="1.67" class="f">pool</text><text x="29.058" y="1.67" class="g">its</text><text x="33.066" y="1.67" class="g">real</text><text x="38.076" y="1.67" class="g">anonymity</text><text x="48.096" y="1.67" class="g">vs</text><text x="51.102" y="1.67" class="g">what</text><text x="56.112" y="1.67" class="g">it</text><text x="59.118" y="1.67" class="g">advertises</text></symbol><symbol id="14"><text x="4.008" y="1.67" class="i">c</text><text x="7.014" y="1.67" class="f">Connect</text><text x="15.03" y="1.67" class="f">/</text><text x="17.034" y="1.67" class="f">disconnect</text><text x="29.058" y="1.67" class="g">activate</text><text x="38.076" y="1.67" class="g">or</text><text x="41.082" y="1.67" class="g">clear</text><text x="47.094" y="1.67" class="g">your</text><text x="52.104" y="1.67" class="g">identity</text></symbol><symbol id="15"><text x="4.008" y="1.67" class="g">q</text><text x="7.014" y="1.67" class="g">quit</text></symbol><symbol id="16"><text x="2.004" y="1.67" class="i">›</text></symbol><symbol id="17"><text x="2.004" y="1.67" class="f">Let&apos;s</text><text x="8.016" y="1.67" class="f">create</text><text x="15.03" y="1.67" class="f">your</text><text x="20.04" y="1.67" class="f">private</text><text x="28.056" y="1.67" class="f">identity.</text></symbol><symbol id="18"><text x="2.004" y="1.67" class="g">One</text><text x="6.012" y="1.67" class="g">secret</text><text x="13.026" y="1.67" class="g">becomes</text><text x="21.042" y="1.67" class="g">a</text><text x="23.046" y="1.67" class="g">different,</text><text x="34.068" y="1.67" class="g">unlinkable</text><text x="45.09" y="1.67" class="g">identity</text><text x="54.108" y="1.67" class="g">in</text><text x="57.114" y="1.67" class="g">every</text><text x="63.126" y="1.67" class="g">app</text><text x="67.134" y="1.67" class="g">you</text><text x="71.142" y="1.67" class="g">use.</text></symbol><symbol id="19"><text x="2.004" y="1.67" class="h">✓</text><text x="4.008" y="1.67" class="g">your</text><text x="9.018" y="1.67" class="g">secret</text><text x="16.032" y="1.67" class="g">(write</text><text x="23.046" y="1.67" class="g">it</text><text x="26.052" y="1.67" class="g">down,</text><text x="32.064" y="1.67" class="g">it</text><text x="35.07" y="1.67" class="g">is</text><text x="38.076" y="1.67" class="g">your</text><text x="43.086" y="1.67" class="g">whole</text><text x="49.098" y="1.67" class="g">identity):</text></symbol><symbol id="20"><text x="6.012" y="1.67" class="f">b2d9a47d8b2d8ba7d4db653623a45771e0873a72f47ae6e0984966b2ea387b6f</text></symbol><symbol id="21"><text x="2.004" y="1.67" class="i">›</text><text x="4.008" y="1.67" class="g">which</text><text x="10.02" y="1.67" class="g">app</text><text x="14.028" y="1.67" class="g">or</text><text x="17.034" y="1.67" class="g">place?</text><text x="24.048" y="1.67" class="g">(e.g.</text><text x="30.06" y="1.67" class="g">dao-vote,</text><text x="40.08" y="1.67" class="g">airdrop)</text><text x="49.098" y="1.67" class="g">›</text></symbol><symbol id="22"><text x="2.004" y="1.67" class="h">✓</text><text x="4.008" y="1.67" class="g">your</text><text x="9.018" y="1.67" class="g">identity</text><text x="18.036" y="1.67" class="g">for</text><text x="22.044" y="1.67" class="i">dao-vote</text></symbol><symbol id="23"><text x="6.012" y="1.67" class="g">who</text><text x="10.02" y="1.67" class="g">you</text><text x="14.028" y="1.67" class="g">are</text><text x="18.036" y="1.67" class="g">:</text><text x="20.04" y="1.67" class="f">8920ee99072b</text><text x="35.07" y="1.67" class="g">nobody</text><text x="42.084" y="1.67" class="g">can</text><text x="46.092" y="1.67" class="g">link</text><text x="51.102" y="1.67" class="g">this</text><text x="56.112" y="1.67" class="g">to</text><text x="59.118" y="1.67" class="g">your</text><text x="64.128" y="1.67" class="g">other</text><text x="70.14" y="1.67" class="g">apps</text></symbol><symbol id="24"><text x="6.012" y="1.67" class="g">one</text><text x="10.02" y="1.67" class="g">action</text><text x="18.036" y="1.67" class="g">:</text><text x="20.04" y="1.67" class="f">4f0d1b3b763f</text><text x="35.07" y="1.67" class="g">spend</text><text x="41.082" y="1.67" class="g">once,</text><text x="47.094" y="1.67" class="g">e.g.</text><text x="52.104" y="1.67" class="g">one</text><text x="56.112" y="1.67" class="g">vote</text><text x="61.122" y="1.67" class="g">or</text><text x="64.128" y="1.67" class="g">one</text><text x="68.136" y="1.67" class="g">claim</text></symbol><symbol id="25"><text x="2.004" y="1.67" class="i">›</text><text x="4.008" y="1.67" class="g">another</text><text x="12.024" y="1.67" class="g">one?</text><text x="17.034" y="1.67" class="g">(or</text><text x="21.042" y="1.67" class="g">press</text><text x="27.054" y="1.67" class="g">Enter</text><text x="33.066" y="1.67" class="g">to</text><text x="36.072" y="1.67" class="g">finish)</text><text x="44.088" y="1.67" class="g">›</text></symbol><symbol id="26"><text x="2.004" y="1.67" class="h">✓</text><text x="4.008" y="1.67" class="g">your</text><text x="9.018" y="1.67" class="g">identity</text><text x="18.036" y="1.67" class="g">for</text><text x="22.044" y="1.67" class="i">airdrop</text></symbol><symbol id="27"><text x="6.012" y="1.67" class="g">who</text><text x="10.02" y="1.67" class="g">you</text><text x="14.028" y="1.67" class="g">are</text><text x="18.036" y="1.67" class="g">:</text><text x="20.04" y="1.67" class="f">b39bb4ff469e</text><text x="35.07" y="1.67" class="g">nobody</text><text x="42.084" y="1.67" class="g">can</text><text x="46.092" y="1.67" class="g">link</text><text x="51.102" y="1.67" class="g">this</text><text x="56.112" y="1.67" class="g">to</text><text x="59.118" y="1.67" class="g">your</text><text x="64.128" y="1.67" class="g">other</text><text x="70.14" y="1.67" class="g">apps</text></symbol><symbol id="28"><text x="6.012" y="1.67" class="g">one</text><text x="10.02" y="1.67" class="g">action</text><text x="18.036" y="1.67" class="g">:</text><text x="20.04" y="1.67" class="f">35f8abbc2285</text><text x="35.07" y="1.67" class="g">spend</text><text x="41.082" y="1.67" class="g">once,</text><text x="47.094" y="1.67" class="g">e.g.</text><text x="52.104" y="1.67" class="g">one</text><text x="56.112" y="1.67" class="g">vote</text><text x="61.122" y="1.67" class="g">or</text><text x="64.128" y="1.67" class="g">one</text><text x="68.136" y="1.67" class="g">claim</text></symbol><symbol id="29"><text x="2.004" y="1.67" class="j">→</text><text x="4.008" y="1.67" class="g">your</text><text x="9.018" y="1.67" class="g">two</text><text x="13.026" y="1.67" class="g">identities</text><text x="24.048" y="1.67" class="g">are</text><text x="28.056" y="1.67" class="g">completely</text><text x="39.078" y="1.67" class="g">different.</text></symbol><symbol id="30"><text x="6.012" y="1.67" class="g">that</text><text x="11.022" y="1.67" class="g">is</text><text x="14.028" y="1.67" class="g">the</text><text x="18.036" y="1.67" class="g">whole</text><text x="24.048" y="1.67" class="g">point:</text><text x="31.062" y="1.67" class="g">one</text><text x="35.07" y="1.67" class="g">secret,</text><text x="43.086" y="1.67" class="g">and</text><text x="47.094" y="1.67" class="g">no</text><text x="50.1" y="1.67" class="g">one</text><text x="54.108" y="1.67" class="g">can</text><text x="58.116" y="1.67" class="g">connect</text><text x="66.132" y="1.67" class="g">them</text><text x="71.142" y="1.67" class="g">to</text><text x="74.148" y="1.67" class="g">you.</text></symbol><symbol id="31"><text x="2.004" y="1.67" class="h">●</text><text x="4.008" y="1.67" class="g">connected.</text><text x="15.03" y="1.67" class="g">a</text><text x="17.034" y="1.67" class="g">fresh</text><text x="23.046" y="1.67" class="g">identity</text><text x="32.064" y="1.67" class="g">is</text><text x="35.07" y="1.67" class="g">active</text><text x="42.084" y="1.67" class="g">on</text><text x="45.09" y="1.67" class="g">this</text><text x="50.1" y="1.67" class="g">machine.</text></symbol><symbol id="32"><text x="3.006" y="1.67" class="h">●</text><text x="6.012" y="1.67" class="h">CONNECTED</text><text x="20.04" y="1.67" class="g">identity</text><text x="29.058" y="1.67" class="g">active</text><text x="36.072" y="1.67" class="g">on</text><text x="39.078" y="1.67" class="g">this</text><text x="44.088" y="1.67" class="g">machine</text><text x="52.104" y="1.67" class="g">(5a0fa2b0…)</text></symbol><symbol id="a"><path fill="transparent" d="M0 0h82v31H0z"/></symbol><symbol id="b"><path fill="#6f7683" d="M0 0h1.102v2.171H0z"/></symbol></defs><path class="a" d="M0 0h82v65.13H0z"/><g style="animation-duration:14.220893s;animation-iteration-count:infinite;animation-name:m;animation-timing-function:steps(1,end)"><svg width="1066"><svg><use xlink:href="#a"/><use xlink:href="#b" x="-.004"/></svg><svg x="82"><use xlink:href="#a"/><use xlink:href="#b" x="-.004" y="2.146"/></svg><svg x="164"><use xlink:href="#a"/><use xlink:href="#b" x="12.996" y="30.369"/><use xlink:href="#1" y="2.171"/><use xlink:href="#2" y="4.342"/><use xlink:href="#3" y="6.513"/><use xlink:href="#4" y="8.684"/><use xlink:href="#5" y="10.855"/><use xlink:href="#6" y="13.026"/><use xlink:href="#2" y="15.197"/><use xlink:href="#7" y="17.368"/><use xlink:href="#8" y="21.71"/><use xlink:href="#9" y="26.052"/><text x="4.008" y="32.064" class="h">1</text><text x="7.014" y="32.064" class="f">Am</text><text x="10.02" y="32.064" class="f">I</text><text x="12.024" y="32.064" class="f">e</text></svg><svg x="246"><use xlink:href="#a"/><use xlink:href="#b" x="3.996" y="45.566"/><use xlink:href="#1" y="2.171"/><use xlink:href="#2" y="4.342"/><use xlink:href="#3" y="6.513"/><use xlink:href="#4" y="8.684"/><use xlink:href="#5" y="10.855"/><use xlink:href="#6" y="13.026"/><use xlink:href="#2" y="15.197"/><use xlink:href="#7" y="17.368"/><use xlink:href="#8" y="21.71"/><use xlink:href="#9" y="26.052"/><use xlink:href="#10" y="30.394"/><use xlink:href="#11" y="32.565"/><use xlink:href="#12" y="34.736"/><use xlink:href="#13" y="36.907"/><use xlink:href="#14" y="39.078"/><use xlink:href="#15" y="41.249"/><use xlink:href="#16" y="45.591"/></svg><svg x="328"><use xlink:href="#a"/><use xlink:href="#b" x="-.004" y="49.908"/><use xlink:href="#1" y="2.171"/><use xlink:href="#2" y="4.342"/><use xlink:href="#3" y="6.513"/><use xlink:href="#4" y="8.684"/><use xlink:href="#5" y="10.855"/><use xlink:href="#6" y="13.026"/><use xlink:href="#2" y="15.197"/><use xlink:href="#7" y="17.368"/><use xlink:href="#8" y="21.71"/><use xlink:href="#9" y="26.052"/><use xlink:href="#10" y="30.394"/><use xlink:href="#11" y="32.565"/><use xlink:href="#12" y="34.736"/><use xlink:href="#13" y="36.907"/><use xlink:href="#14" y="39.078"/><use xlink:href="#15" y="41.249"/><use xlink:href="#16" y="45.591"/><use xlink:href="#17" y="47.762"/></svg><svg x="410"><use xlink:href="#a"/><use xlink:href="#b" x="50.996" y="60.763"/><use xlink:href="#1" y="2.171"/><use xlink:href="#2" y="4.342"/><use xlink:href="#3" y="6.513"/><use xlink:href="#4" y="8.684"/><use xlink:href="#5" y="10.855"/><use xlink:href="#6" y="13.026"/><use xlink:href="#2" y="15.197"/><use xlink:href="#7" y="17.368"/><use xlink:href="#8" y="21.71"/><use xlink:href="#9" y="26.052"/><use xlink:href="#10" y="30.394"/><use xlink:href="#11" y="32.565"/><use xlink:href="#12" y="34.736"/><use xlink:href="#13" y="36.907"/><use xlink:href="#14" y="39.078"/><use xlink:href="#15" y="41.249"/><use xlink:href="#16" y="45.591"/><use xlink:href="#17" y="47.762"/><use xlink:href="#18" y="49.933"/><use xlink:href="#19" y="54.275"/><use xlink:href="#20" y="56.446"/><use xlink:href="#21" y="60.788"/></svg><svg x="492"><use xlink:href="#a"/><use xlink:href="#b" x="45.996" y="65.105"/><use xlink:href="#2"/><use xlink:href="#3" y="2.171"/><use xlink:href="#4" y="4.342"/><use xlink:href="#5" y="6.513"/><use xlink:href="#6" y="8.684"/><use xlink:href="#2" y="10.855"/><use xlink:href="#7" y="13.026"/><use xlink:href="#8" y="17.368"/><use xlink:href="#9" y="21.71"/><use xlink:href="#10" y="26.052"/><use xlink:href="#11" y="28.223"/><use xlink:href="#12" y="30.394"/><use xlink:href="#13" y="32.565"/><use xlink:href="#14" y="34.736"/><use xlink:href="#15" y="36.907"/><use xlink:href="#16" y="41.249"/><use xlink:href="#17" y="43.42"/><use xlink:href="#18" y="45.591"/><use xlink:href="#19" y="49.933"/><use xlink:href="#20" y="52.104"/><use xlink:href="#21" y="56.446"/><use xlink:href="#22" y="58.617"/><use xlink:href="#23" y="60.788"/><use xlink:href="#24" y="62.959"/><use xlink:href="#25" y="65.13"/></svg><svg x="574"><use xlink:href="#a"/><use xlink:href="#b" x="45.996" y="65.105"/><use xlink:href="#8" y="2.171"/><use xlink:href="#9" y="6.513"/><use xlink:href="#10" y="10.855"/><use xlink:href="#11" y="13.026"/><use xlink:href="#12" y="15.197"/><use xlink:href="#13" y="17.368"/><use xlink:href="#14" y="19.539"/><use xlink:href="#15" y="21.71"/><use xlink:href="#16" y="26.052"/><use xlink:href="#17" y="28.223"/><use xlink:href="#18" y="30.394"/><use xlink:href="#19" y="34.736"/><use xlink:href="#20" y="36.907"/><use xlink:href="#21" y="41.249"/><use xlink:href="#22" y="43.42"/><use xlink:href="#23" y="45.591"/><use xlink:href="#24" y="47.762"/><use xlink:href="#25" y="49.933"/><use xlink:href="#26" y="52.104"/><use xlink:href="#27" y="54.275"/><use xlink:href="#28" y="56.446"/><use xlink:href="#29" y="60.788"/><use xlink:href="#30" y="62.959"/><use xlink:href="#25" y="65.13"/></svg><svg x="656"><use xlink:href="#a"/><use xlink:href="#b" x="3.996" y="65.105"/><use xlink:href="#16" y="2.171"/><use xlink:href="#17" y="4.342"/><use xlink:href="#18" y="6.513"/><use xlink:href="#19" y="10.855"/><use xlink:href="#20" y="13.026"/><use xlink:href="#21" y="17.368"/><use xlink:href="#22" y="19.539"/><use xlink:href="#23" y="21.71"/><use xlink:href="#24" y="23.881"/><use xlink:href="#25" y="26.052"/><use xlink:href="#26" y="28.223"/><use xlink:href="#27" y="30.394"/><use xlink:href="#28" y="32.565"/><use xlink:href="#29" y="36.907"/><use xlink:href="#30" y="39.078"/><use xlink:href="#25" y="41.249"/><use xlink:href="#9" y="45.591"/><use xlink:href="#10" y="49.933"/><use xlink:href="#11" y="52.104"/><use xlink:href="#12" y="54.275"/><use xlink:href="#13" y="56.446"/><use xlink:href="#14" y="58.617"/><use xlink:href="#15" y="60.788"/><use xlink:href="#16" y="65.13"/></svg><svg x="738"><use xlink:href="#a"/><use xlink:href="#b" x="-.004" y="65.105"/><use xlink:href="#19"/><use xlink:href="#20" y="2.171"/><use xlink:href="#21" y="6.513"/><use xlink:href="#22" y="8.684"/><use xlink:href="#23" y="10.855"/><use xlink:href="#24" y="13.026"/><use xlink:href="#25" y="15.197"/><use xlink:href="#26" y="17.368"/><use xlink:href="#27" y="19.539"/><use xlink:href="#28" y="21.71"/><use xlink:href="#29" y="26.052"/><use xlink:href="#30" y="28.223"/><use xlink:href="#25" y="30.394"/><use xlink:href="#9" y="34.736"/><use xlink:href="#10" y="39.078"/><use xlink:href="#11" y="41.249"/><use xlink:href="#12" y="43.42"/><use xlink:href="#13" y="45.591"/><use xlink:href="#14" y="47.762"/><use xlink:href="#15" y="49.933"/><use xlink:href="#16" y="54.275"/><use xlink:href="#31" y="56.446"/><use xlink:href="#1" y="60.788"/><use xlink:href="#2" y="62.959"/></svg><svg x="820"><use xlink:href="#a"/><use xlink:href="#b" x="28.996" y="65.105"/><use xlink:href="#30"/><use xlink:href="#25" y="2.171"/><use xlink:href="#9" y="6.513"/><use xlink:href="#10" y="10.855"/><use xlink:href="#11" y="13.026"/><use xlink:href="#12" y="15.197"/><use xlink:href="#13" y="17.368"/><use xlink:href="#14" y="19.539"/><use xlink:href="#15" y="21.71"/><use xlink:href="#16" y="26.052"/><use xlink:href="#31" y="28.223"/><use xlink:href="#1" y="32.565"/><use xlink:href="#2" y="34.736"/><use xlink:href="#32" y="36.907"/><use xlink:href="#4" y="39.078"/><use xlink:href="#5" y="41.249"/><use xlink:href="#6" y="43.42"/><use xlink:href="#2" y="45.591"/><use xlink:href="#7" y="47.762"/><use xlink:href="#9" y="54.275"/><use xlink:href="#10" y="58.617"/><use xlink:href="#11" y="60.788"/><use xlink:href="#12" y="62.959"/><text x="4.008" y="66.8" class="h">4</text><text x="7.014" y="66.8" class="f">Measure</text><text x="15.03" y="66.8" class="f">a</text><text x="17.034" y="66.8" class="f">pool</text></svg><svg x="902"><use xlink:href="#a"/><use xlink:href="#b" x="3.996" y="65.105"/><use xlink:href="#10" y="2.171"/><use xlink:href="#11" y="4.342"/><use xlink:href="#12" y="6.513"/><use xlink:href="#13" y="8.684"/><use xlink:href="#14" y="10.855"/><use xlink:href="#15" y="13.026"/><use xlink:href="#16" y="17.368"/><use xlink:href="#31" y="19.539"/><use xlink:href="#1" y="23.881"/><use xlink:href="#2" y="26.052"/><use xlink:href="#32" y="28.223"/><use xlink:href="#4" y="30.394"/><use xlink:href="#5" y="32.565"/><use xlink:href="#6" y="34.736"/><use xlink:href="#2" y="36.907"/><use xlink:href="#7" y="39.078"/><use xlink:href="#9" y="45.591"/><use xlink:href="#10" y="49.933"/><use xlink:href="#11" y="52.104"/><use xlink:href="#12" y="54.275"/><use xlink:href="#13" y="56.446"/><use xlink:href="#14" y="58.617"/><use xlink:href="#15" y="60.788"/><use xlink:href="#16" y="65.13"/></svg><svg x="984"><use xlink:href="#a"/><use xlink:href="#b" x="-.004" y="65.105"/><use xlink:href="#10"/><use xlink:href="#11" y="2.171"/><use xlink:href="#12" y="4.342"/><use xlink:href="#13" y="6.513"/><use xlink:href="#14" y="8.684"/><use xlink:href="#15" y="10.855"/><use xlink:href="#16" y="15.197"/><use xlink:href="#31" y="17.368"/><use xlink:href="#1" y="21.71"/><use xlink:href="#2" y="23.881"/><use xlink:href="#32" y="26.052"/><use xlink:href="#4" y="28.223"/><use xlink:href="#5" y="30.394"/><use xlink:href="#6" y="32.565"/><use xlink:href="#2" y="34.736"/><use xlink:href="#7" y="36.907"/><use xlink:href="#9" y="43.42"/><use xlink:href="#10" y="47.762"/><use xlink:href="#11" y="49.933"/><use xlink:href="#12" y="52.104"/><use xlink:href="#13" y="54.275"/><use xlink:href="#14" y="56.446"/><use xlink:href="#15" y="58.617"/><text x="2.004" y="64.629" class="i">›</text><text x="6.012" y="64.629" class="g">stay</text><text x="11.022" y="64.629" class="g">private.</text></svg></svg></g></g></svg></svg>